<svg xmlns="http://www.w3.org/2000/svg" viewBox="0 0 48 48" fill="none">
  <defs>
    <linearGradient id="logo-grad" x1="0" y1="0" x2="48" y2="48" gradientUnits="userSpaceOnUse">
      <stop offset="0%" stop-color="#00e5ff"/>
      <stop offset="100%" stop-color="#00b8d9"/>
    </linearGradient>
    <linearGradient id="inner-grad" x1="12" y1="10" x2="36" y2="38" gradientUnits="userSpaceOnUse">
      <stop offset="0%" stop-color="#00e5ff" stop-opacity="0.3"/>
      <stop offset="100%" stop-color="#00b8d9" stop-opacity="0.05"/>
    </linearGradient>
  </defs>
  <!-- Outer shield shape -->
  <path d="M24 2L6 10v14c0 11.1 7.7 21.4 18 24 10.3-2.6 18-12.9 18-24V10L24 2z" stroke="url(#logo-grad)" stroke-width="2" fill="url(#inner-grad)"/>
  <!-- Inner eye / radar -->
  <circle cx="24" cy="22" r="8" stroke="url(#logo-grad)" stroke-width="1.5" fill="none"/>
  <circle cx="24" cy="22" r="3" fill="url(#logo-grad)"/>
  <!-- Scanning lines -->
  <path d="M24 14v-2M24 32v-2M16 22h-2M34 22h-2" stroke="url(#logo-grad)" stroke-width="1.2" stroke-linecap="round"/>
  <!-- Bottom accent -->
  <path d="M18 36c1.8 1.6 3.8 2.8 6 3.5 2.2-.7 4.2-1.9 6-3.5" stroke="url(#logo-grad)" stroke-width="1.2" stroke-linecap="round" fill="none"/>
</svg>
